<svg viewBox="0 0 87.5 60" width="87.5" height="60">
  <path d="M 6.041 22.512 L 8.371 22.512 C 7.729 22.358 7.135 22.043 6.701 21.628 C 6.085 21.036 5.682 20.139 5.665 19.232 L 5.665 5.888 C 5.682 4.982 6.085 4.083 6.701 3.493 C 7.319 2.902 8.256 2.518 9.205 2.5 L 80.846 2.5 C 81.794 2.518 82.731 2.902 83.35 3.493 C 83.965 4.083 84.369 4.982 84.384 5.888 L 84.384 19.232 C 84.369 20.139 83.965 21.036 83.35 21.628 C 82.731 22.219 81.794 22.603 80.846 22.619 L 78.968 22.619 C 79.613 22.774 80.207 23.089 80.641 23.505 C 81.26 24.094 81.66 24.994 81.679 25.9 L 81.679 37.322 C 81.66 38.229 81.26 39.126 80.641 39.719 C 80.073 40.26 79.237 40.629 78.371 40.699 L 81.454 40.699 C 82.4 40.717 83.34 41.102 83.956 41.69 C 84.574 42.283 84.975 43.179 84.994 44.088 L 84.994 54.112 C 84.975 55.017 84.574 55.917 83.956 56.507 C 83.34 57.099 82.4 57.482 81.454 57.5 L 6.16 57.5 C 5.213 57.482 4.274 57.099 3.656 56.507 C 3.039 55.917 2.639 55.017 2.62 54.112 L 2.62 44.088 C 2.639 43.179 3.039 42.283 3.656 41.69 C 4.23 41.142 5.082 40.772 5.958 40.707 C 5.04 40.671 4.136 40.291 3.535 39.719 C 2.919 39.126 2.519 38.229 2.5 37.322 L 2.5 25.9 C 2.519 24.994 2.919 24.094 3.535 23.505 C 4.154 22.913 5.093 22.53 6.041 22.512 Z M 6.463 23.326 L 6.463 39.897 L 10.118 39.897 L 10.118 23.326 L 6.463 23.326 Z M 76.416 39.897 L 76.416 23.326 L 72.992 23.326 L 72.992 39.897 L 76.416 39.897 Z M 67.586 23.326 L 67.586 39.897 L 71.242 39.897 L 71.242 23.326 L 67.586 23.326 Z M 8.215 41.513 L 8.215 56.686 L 12.326 56.686 L 12.326 41.513 L 8.215 41.513 Z M 80.148 56.686 L 80.148 41.513 L 74.437 41.513 L 74.437 56.686 L 80.148 56.686 Z M 9.862 3.313 L 9.862 21.808 L 13.705 21.808 L 13.705 3.313 L 9.862 3.313 Z M 79.397 21.808 L 79.397 3.313 L 74.3 3.313 L 74.3 21.808 L 79.397 21.808 Z M 15.553 3.313 L 15.553 21.808 L 19.912 21.808 L 19.912 3.313 L 15.553 3.313 Z" data-bx-origin="-0.166678 -0.25"></path>
</svg>
