<!doctype html>
<svg viewBox="0 0 87.5 60" width="59.996" height="40">
  <path d="M 6.041 22.512 L 8.371 22.512 C 7.729 22.358 7.135 22.043 6.701 21.628 C 6.085 21.036 5.682 20.139 5.665 19.232 L 5.665 5.888 C 5.682 4.982 6.085 4.083 6.701 3.493 C 7.319 2.902 8.256 2.518 9.205 2.5 L 80.846 2.5 C 81.794 2.518 82.731 2.902 83.35 3.493 C 83.965 4.083 84.369 4.982 84.384 5.888 L 84.384 19.232 C 84.369 20.139 83.965 21.036 83.35 21.628 C 82.731 22.219 81.794 22.603 80.846 22.619 L 78.968 22.619 C 79.613 22.774 80.207 23.089 80.641 23.505 C 81.26 24.094 81.66 24.994 81.679 25.9 L 81.679 37.322 C 81.66 38.229 81.26 39.126 80.641 39.719 C 80.073 40.26 79.237 40.629 78.371 40.699 L 81.454 40.699 C 82.4 40.717 83.34 41.102 83.956 41.69 C 84.574 42.283 84.975 43.179 84.994 44.088 L 84.994 54.112 C 84.975 55.017 84.574 55.917 83.956 56.507 C 83.34 57.099 82.4 57.482 81.454 57.5 L 6.16 57.5 C 5.213 57.482 4.274 57.099 3.656 56.507 C 3.039 55.917 2.639 55.017 2.62 54.112 L 2.62 44.088 C 2.639 43.179 3.039 42.283 3.656 41.69 C 4.23 41.142 5.082 40.772 5.958 40.707 C 5.04 40.671 4.136 40.291 3.535 39.719 C 2.919 39.126 2.519 38.229 2.5 37.322 L 2.5 25.9 C 2.519 24.994 2.919 24.094 3.535 23.505 C 4.154 22.913 5.093 22.53 6.041 22.512 Z M 6.463 23.326 L 6.463 39.897 L 10.118 39.897 L 10.118 23.326 L 6.463 23.326 Z M 76.416 39.897 L 76.416 23.326 L 72.992 23.326 L 72.992 39.897 L 76.416 39.897 Z M 67.586 23.326 L 67.586 39.897 L 71.242 39.897 L 71.242 23.326 L 67.586 23.326 Z M 8.215 41.513 L 8.215 56.686 L 12.326 56.686 L 12.326 41.513 L 8.215 41.513 Z M 80.148 56.686 L 80.148 41.513 L 74.437 41.513 L 74.437 56.686 L 80.148 56.686 Z M 9.862 3.313 L 9.862 21.808 L 13.705 21.808 L 13.705 3.313 L 9.862 3.313 Z M 79.397 21.808 L 79.397 3.313 L 74.3 3.313 L 74.3 21.808 L 79.397 21.808 Z M 15.553 3.313 L 15.553 21.808 L 19.912 21.808 L 19.912 3.313 L 15.553 3.313 Z M 42.202 8.884 L 42.202 7.897 L 33.894 7.897 L 33.894 8.884 L 37.391 8.884 L 37.391 19.4 L 38.708 19.4 L 38.708 8.884 L 42.202 8.884 Z M 50.868 19.4 L 50.868 13.44 C 50.868 13.108 50.786 12.796 50.626 12.502 C 50.466 12.208 50.245 11.95 49.969 11.73 C 49.689 11.512 49.361 11.34 48.986 11.213 C 48.611 11.087 48.213 11.026 47.79 11.026 L 47.474 11.026 C 47.005 11.026 46.569 11.101 46.167 11.251 C 45.764 11.399 45.419 11.608 45.135 11.876 L 45.135 7.897 L 43.877 7.897 L 43.877 19.4 L 45.135 19.4 L 45.135 13.385 C 45.135 13.187 45.183 12.999 45.278 12.826 C 45.373 12.653 45.503 12.502 45.665 12.373 C 45.829 12.246 46.022 12.143 46.243 12.069 C 46.464 11.994 46.699 11.956 46.952 11.956 L 47.79 11.956 C 48.043 11.956 48.281 11.994 48.502 12.069 C 48.723 12.143 48.916 12.246 49.079 12.373 C 49.242 12.502 49.372 12.653 49.467 12.826 C 49.562 12.999 49.609 13.187 49.609 13.385 L 49.609 19.4 L 50.868 19.4 Z M 60.368 16.818 L 59.111 16.657 L 59.111 17.203 C 59.111 17.401 59.063 17.585 58.968 17.761 C 58.875 17.933 58.744 18.086 58.579 18.214 C 58.417 18.341 58.223 18.442 58.002 18.519 C 57.781 18.593 57.545 18.63 57.292 18.63 L 56.454 18.63 C 56.203 18.63 55.966 18.593 55.747 18.519 C 55.524 18.442 55.332 18.341 55.167 18.214 C 55.003 18.086 54.875 17.933 54.778 17.761 C 54.683 17.585 54.636 17.401 54.636 17.203 L 54.636 15.373 L 60.368 15.373 L 60.368 13.44 C 60.368 13.108 60.289 12.796 60.128 12.502 C 59.968 12.208 59.75 11.95 59.469 11.73 C 59.19 11.512 58.864 11.34 58.489 11.213 C 58.113 11.087 57.715 11.026 57.292 11.026 L 56.454 11.026 C 56.033 11.026 55.634 11.087 55.259 11.213 C 54.885 11.34 54.556 11.512 54.28 11.73 C 53.998 11.95 53.778 12.208 53.618 12.502 C 53.458 12.796 53.378 13.108 53.378 13.44 L 53.378 17.147 C 53.378 17.478 53.458 17.79 53.618 18.086 C 53.778 18.379 53.998 18.637 54.28 18.854 C 54.556 19.074 54.885 19.248 55.259 19.373 C 55.634 19.498 56.033 19.561 56.454 19.561 L 57.292 19.561 C 57.715 19.561 58.113 19.498 58.489 19.373 C 58.864 19.248 59.19 19.074 59.469 18.854 C 59.75 18.637 59.968 18.379 60.128 18.086 C 60.289 17.79 60.368 17.478 60.368 17.147 L 60.368 16.818 Z M 59.111 14.603 L 54.636 14.603 L 54.636 13.385 C 54.636 13.187 54.683 12.999 54.778 12.826 C 54.875 12.653 55.003 12.502 55.167 12.373 C 55.332 12.246 55.524 12.143 55.747 12.069 C 55.966 11.994 56.203 11.956 56.454 11.956 L 57.292 11.956 C 57.545 11.956 57.781 11.994 58.002 12.069 C 58.223 12.143 58.417 12.246 58.579 12.373 C 58.744 12.502 58.875 12.653 58.968 12.826 C 59.063 12.999 59.111 13.187 59.111 13.385 L 59.111 14.603 Z M 28.258 34.206 C 28.258 33.905 28.207 33.618 28.105 33.343 C 28.004 33.068 27.858 32.809 27.669 32.571 C 27.481 32.332 27.26 32.116 27.003 31.924 C 26.747 31.733 26.461 31.57 26.146 31.44 C 26.461 31.312 26.747 31.149 27.003 30.957 C 27.26 30.765 27.481 30.55 27.669 30.314 C 27.858 30.077 28.004 29.823 28.105 29.546 C 28.207 29.273 28.258 28.984 28.258 28.683 L 28.258 28.559 C 28.258 28.127 28.153 27.72 27.946 27.341 C 27.738 26.957 27.456 26.626 27.093 26.341 C 26.732 26.059 26.31 25.835 25.823 25.672 C 25.339 25.511 24.82 25.428 24.27 25.428 L 19.143 25.428 L 19.143 38.143 L 24.27 38.143 C 24.82 38.143 25.339 38.062 25.823 37.901 C 26.31 37.737 26.732 37.513 27.093 37.23 C 27.456 36.947 27.738 36.616 27.946 36.236 C 28.153 35.859 28.258 35.455 28.258 35.023 L 28.258 34.206 Z M 26.8 35.023 C 26.8 35.306 26.733 35.572 26.598 35.815 C 26.461 36.061 26.275 36.276 26.039 36.458 C 25.802 36.643 25.526 36.786 25.212 36.893 C 24.902 36.999 24.565 37.052 24.203 37.052 L 20.599 37.052 L 20.599 31.99 L 24.203 31.99 C 24.565 31.99 24.902 32.043 25.212 32.151 C 25.526 32.258 25.802 32.401 26.039 32.585 C 26.275 32.768 26.461 32.982 26.598 33.229 C 26.733 33.472 26.8 33.737 26.8 34.021 L 26.8 35.023 Z M 26.8 28.862 C 26.8 29.145 26.733 29.407 26.598 29.654 C 26.461 29.9 26.275 30.116 26.039 30.301 C 25.802 30.487 25.526 30.634 25.212 30.74 C 24.902 30.847 24.565 30.899 24.203 30.899 L 20.599 30.899 L 20.599 26.521 L 24.203 26.521 C 24.565 26.521 24.902 26.572 25.212 26.678 C 25.526 26.785 25.802 26.932 26.039 27.118 C 26.275 27.304 26.461 27.52 26.598 27.766 C 26.733 28.012 26.8 28.274 26.8 28.559 L 26.8 28.862 Z M 38.295 31.555 C 38.295 31.189 38.207 30.843 38.031 30.518 C 37.854 30.193 37.613 29.909 37.303 29.666 C 36.993 29.424 36.632 29.234 36.218 29.094 C 35.804 28.956 35.364 28.886 34.898 28.886 L 33.971 28.886 C 33.505 28.886 33.062 28.956 32.648 29.094 C 32.234 29.234 31.874 29.424 31.565 29.666 C 31.258 29.909 31.015 30.193 30.836 30.518 C 30.66 30.843 30.571 31.189 30.571 31.555 L 30.571 35.651 C 30.571 36.017 30.66 36.364 30.836 36.689 C 31.015 37.015 31.258 37.297 31.565 37.539 C 31.874 37.783 32.234 37.974 32.648 38.113 C 33.062 38.25 33.505 38.322 33.971 38.322 L 34.898 38.322 C 35.364 38.322 35.804 38.25 36.218 38.113 C 36.632 37.974 36.993 37.783 37.303 37.539 C 37.613 37.297 37.854 37.015 38.031 36.689 C 38.207 36.364 38.295 36.017 38.295 35.651 L 38.295 31.555 Z M 36.909 35.713 C 36.909 35.932 36.854 36.137 36.75 36.329 C 36.643 36.523 36.501 36.689 36.32 36.832 C 36.141 36.973 35.926 37.084 35.682 37.169 C 35.438 37.25 35.176 37.29 34.898 37.29 L 33.971 37.29 C 33.692 37.29 33.432 37.25 33.185 37.169 C 32.941 37.084 32.729 36.973 32.548 36.832 C 32.368 36.689 32.225 36.523 32.12 36.329 C 32.013 36.137 31.961 35.932 31.961 35.713 L 31.961 31.495 C 31.961 31.275 32.013 31.068 32.12 30.879 C 32.225 30.685 32.368 30.518 32.548 30.375 C 32.729 30.235 32.941 30.122 33.185 30.04 C 33.432 29.956 33.692 29.915 33.971 29.915 L 34.898 29.915 C 35.176 29.915 35.438 29.956 35.682 30.04 C 35.926 30.122 36.141 30.235 36.32 30.375 C 36.501 30.518 36.643 30.685 36.75 30.879 C 36.854 31.068 36.909 31.275 36.909 31.495 L 36.909 35.713 Z M 48.799 31.555 C 48.799 31.189 48.71 30.843 48.535 30.518 C 48.356 30.193 48.114 29.909 47.806 29.666 C 47.495 29.424 47.135 29.234 46.721 29.094 C 46.308 28.956 45.866 28.886 45.4 28.886 L 44.475 28.886 C 44.007 28.886 43.566 28.956 43.152 29.094 C 42.738 29.234 42.378 29.424 42.068 29.666 C 41.758 29.909 41.517 30.193 41.34 30.518 C 41.164 30.843 41.074 31.189 41.074 31.555 L 41.074 35.651 C 41.074 36.017 41.164 36.364 41.34 36.689 C 41.517 37.015 41.758 37.297 42.068 37.539 C 42.378 37.783 42.738 37.974 43.152 38.113 C 43.566 38.25 44.007 38.322 44.475 38.322 L 45.4 38.322 C 45.866 38.322 46.308 38.25 46.721 38.113 C 47.135 37.974 47.495 37.783 47.806 37.539 C 48.114 37.297 48.356 37.015 48.535 36.689 C 48.71 36.364 48.799 36.017 48.799 35.651 L 48.799 31.555 Z M 47.412 35.713 C 47.412 35.932 47.358 36.137 47.252 36.329 C 47.146 36.523 47.003 36.689 46.823 36.832 C 46.642 36.973 46.429 37.084 46.185 37.169 C 45.939 37.25 45.678 37.29 45.4 37.29 L 44.475 37.29 C 44.194 37.29 43.934 37.25 43.69 37.169 C 43.443 37.084 43.232 36.973 43.052 36.832 C 42.87 36.689 42.727 36.523 42.623 36.329 C 42.517 36.137 42.463 35.932 42.463 35.713 L 42.463 31.495 C 42.463 31.275 42.517 31.068 42.623 30.879 C 42.727 30.685 42.87 30.518 43.052 30.375 C 43.232 30.235 43.443 30.122 43.69 30.04 C 43.934 29.956 44.194 29.915 44.475 29.915 L 45.4 29.915 C 45.678 29.915 45.939 29.956 46.185 30.04 C 46.429 30.122 46.642 30.235 46.823 30.375 C 47.003 30.518 47.146 30.685 47.252 30.879 C 47.358 31.068 47.412 31.275 47.412 31.495 L 47.412 35.713 Z M 60.229 38.143 L 55.398 33.603 L 60.229 29.064 L 58.423 29.064 L 53.702 33.603 L 58.423 38.143 L 60.229 38.143 Z M 53.431 38.143 L 53.431 25.428 L 52.043 25.428 L 52.043 38.143 L 53.431 38.143 Z M 34.014 54.096 L 34.014 43.449 L 32.795 43.449 L 32.795 51.659 L 32.672 51.207 L 27.016 43.449 L 26.382 43.449 L 26.382 54.096 L 27.603 54.096 L 27.603 45.884 L 27.716 46.343 L 33.372 54.096 L 34.014 54.096 Z M 43.098 48.578 C 43.098 48.271 43.027 47.982 42.878 47.71 C 42.731 47.438 42.526 47.2 42.268 46.996 C 42.009 46.794 41.707 46.635 41.36 46.518 C 41.014 46.402 40.644 46.343 40.253 46.343 L 39.478 46.343 C 39.087 46.343 38.719 46.402 38.372 46.518 C 38.026 46.635 37.723 46.794 37.463 46.996 C 37.205 47.2 37.003 47.438 36.853 47.71 C 36.706 47.982 36.632 48.271 36.632 48.578 L 36.632 52.008 C 36.632 52.315 36.706 52.604 36.853 52.877 C 37.003 53.15 37.205 53.386 37.463 53.588 C 37.723 53.793 38.026 53.951 38.372 54.068 C 38.719 54.185 39.087 54.243 39.478 54.243 L 40.253 54.243 C 40.644 54.243 41.014 54.185 41.36 54.068 C 41.707 53.951 42.009 53.793 42.268 53.588 C 42.526 53.386 42.731 53.15 42.878 52.877 C 43.027 52.604 43.098 52.315 43.098 52.008 L 43.098 48.578 Z M 41.938 52.059 C 41.938 52.242 41.892 52.415 41.804 52.576 C 41.718 52.736 41.597 52.877 41.445 52.995 C 41.294 53.115 41.116 53.209 40.911 53.276 C 40.706 53.348 40.487 53.381 40.253 53.381 L 39.478 53.381 C 39.245 53.381 39.026 53.348 38.822 53.276 C 38.617 53.209 38.44 53.115 38.287 52.995 C 38.136 52.877 38.016 52.736 37.93 52.576 C 37.839 52.415 37.795 52.242 37.795 52.059 L 37.795 48.527 C 37.795 48.344 37.839 48.171 37.93 48.011 C 38.016 47.849 38.136 47.71 38.287 47.592 C 38.44 47.472 38.617 47.379 38.822 47.309 C 39.026 47.24 39.245 47.205 39.478 47.205 L 40.253 47.205 C 40.487 47.205 40.706 47.24 40.911 47.309 C 41.116 47.379 41.294 47.472 41.445 47.592 C 41.597 47.71 41.718 47.849 41.804 48.011 C 41.892 48.171 41.938 48.344 41.938 48.527 L 41.938 52.059 Z M 51.801 48.578 C 51.801 48.271 51.728 47.982 51.578 47.71 C 51.429 47.438 51.226 47.2 50.97 46.996 C 50.712 46.794 50.408 46.635 50.06 46.518 C 49.715 46.402 49.345 46.343 48.956 46.343 L 48.18 46.343 C 47.787 46.343 47.421 46.402 47.073 46.518 C 46.727 46.635 46.423 46.794 46.166 46.996 C 45.905 47.2 45.704 47.438 45.554 47.71 C 45.407 47.982 45.331 48.271 45.331 48.578 L 45.331 52.008 C 45.331 52.315 45.407 52.604 45.554 52.877 C 45.704 53.15 45.905 53.386 46.166 53.588 C 46.423 53.793 46.727 53.951 47.073 54.068 C 47.421 54.185 47.787 54.243 48.18 54.243 L 48.956 54.243 C 49.345 54.243 49.715 54.185 50.06 54.068 C 50.408 53.951 50.712 53.793 50.97 53.588 C 51.226 53.386 51.429 53.15 51.578 52.877 C 51.728 52.604 51.801 52.315 51.801 52.008 L 51.801 48.578 Z M 50.639 52.059 C 50.639 52.242 50.593 52.415 50.505 52.576 C 50.419 52.736 50.298 52.877 50.145 52.995 C 49.994 53.115 49.818 53.209 49.612 53.276 C 49.408 53.348 49.188 53.381 48.956 53.381 L 48.18 53.381 C 47.945 53.381 47.727 53.348 47.523 53.276 C 47.317 53.209 47.139 53.115 46.987 52.995 C 46.837 52.877 46.717 52.736 46.629 52.576 C 46.539 52.415 46.496 52.242 46.496 52.059 L 46.496 48.527 C 46.496 48.344 46.539 48.171 46.629 48.011 C 46.717 47.849 46.837 47.71 46.987 47.592 C 47.139 47.472 47.317 47.379 47.523 47.309 C 47.727 47.24 47.945 47.205 48.18 47.205 L 48.956 47.205 C 49.188 47.205 49.408 47.24 49.612 47.309 C 49.818 47.379 49.994 47.472 50.145 47.592 C 50.298 47.71 50.419 47.849 50.505 48.011 C 50.593 48.171 50.639 48.344 50.639 48.527 L 50.639 52.059 Z M 61.369 54.096 L 57.323 50.292 L 61.369 46.492 L 59.857 46.492 L 55.905 50.292 L 59.857 54.096 L 61.369 54.096 Z M 55.675 54.096 L 55.675 43.449 L 54.514 43.449 L 54.514 54.096 L 55.675 54.096 Z" data-bx-origin="-0.166678 -0.25"></path>
</svg>
